<?xml version="1.0" standalone="no"?>
<!DOCTYPE svg PUBLIC "-//W3C//DTD SVG 20010904//EN" "http://www.w3.org/TR/2001/REC-SVG-20010904/DTD/svg10.dtd">
<!-- Created using Krita: https://krita.org -->
<svg xmlns="http://www.w3.org/2000/svg" 
    xmlns:xlink="http://www.w3.org/1999/xlink"
    xmlns:krita="http://krita.org/namespaces/svg/krita"
    xmlns:sodipodi="http://sodipodi.sourceforge.net/DTD/sodipodi-0.dtd"
    width="288pt"
    height="201.6pt"
    viewBox="0 0 288 201.6">
<defs/>
<path id="boiler-return-02" transform="matrix(0.72 0 0 0.72 147.6 128.88)" fill="#6e8ca0" stroke-opacity="0" stroke="#000000" stroke-width="0" stroke-linecap="square" stroke-linejoin="bevel" d="M66.7 0L65.6 0C65.4 0 65.2 0.2 65.2 0.4L65.2 2.6L0 2.6L0 8.6L65.2 8.6L65.2 11C65.2 11.2 65.4 11.4 65.6 11.4L66.7 11.4C66.9 11.4 67.1 11.2 67.1 11L67.1 0.5C67.1 0.2 66.9 0 66.7 0ZM35.8 7.8L31 5.6L35.8 3.4Z" sodipodi:nodetypes="ccccccccccccccccc"/><path id="boiler-return-01" transform="matrix(0.72 0 0 0.72 221.832 128.88)" fill="#6e8ca0" stroke-opacity="0" stroke="#000000" stroke-width="0" stroke-linecap="square" stroke-linejoin="bevel" d="M1.9 2.8L1.9 0.4C1.9 0.2 1.7 0 1.5 0L0.4 0C0.2 0 0 0.2 0 0.4L0 11C0 11.2 0.2 11.4 0.4 11.4L1.5 11.4C1.7 11.4 1.9 11.2 1.9 11L1.9 8.8L67 8.8L67 2.8ZM34.9 7.8L30.1 5.6L34.9 3.4Z" sodipodi:nodetypes="ccccccccccccccccc"/><path id="boiler-flow" transform="matrix(0.72 0 0 0.72 147.672 87.048)" fill="#c86464" stroke-opacity="0" stroke="#000000" stroke-width="0" stroke-linecap="square" stroke-linejoin="bevel" d="M0 0L0 6L170.1 6L170.1 0ZM30.9 5.2L30.9 0.8L35.7 3ZM133.1 5.2L133.1 0.8L137.9 3Z" sodipodi:nodetypes="ccccccccccccc"/><path id="shape0" transform="matrix(0.72 0 0 0.72 24.48 18.72)" fill="#646464" stroke-opacity="0" stroke="#000000" stroke-width="0" stroke-linecap="square" stroke-linejoin="bevel" d="M205.4 0L205.4 51.9L171.8 51.9L171.8 43.3C171.8 42.2 170.8 41.2 169.7 41.2L78.5 41.2C77.4 41.2 76.4 42.2 76.4 43.3L76.4 142.3L41 142.3L61.3 116.2L61.4 116C62.7 113.7 63.4 111.1 63.4 108.5L63.4 56.3C63.4 48 56.6 41.2 48.3 41.2L15.1 41.2C6.8 41.2 0 48 0 56.3L0 108.5C0 111.1 0.7 113.7 2 116L22.4 142.3L22.4 142.3L22.4 154.7L76.3 154.7L76.3 172.8C76.3 173 76.3 173.1 76.4 173.3C76.4 173.5 76.3 173.6 76.3 173.8L76.3 228.1C76.3 229.2 77.3 230.2 78.4 230.2L169.6 230.2C170.7 230.2 171.7 229.2 171.7 228.1L171.7 173.8C171.7 173.6 171.7 173.5 171.6 173.3C171.6 173.1 171.7 173 171.7 172.8L171.7 64.5L212.7 64.5C215.6 64.5 217.9 62.2 217.9 59.3L217.9 0ZM5.1 114.2C4.1 112.5 3.6 110.5 3.6 108.5L3.6 56.3C3.6 49.9 8.8 44.8 15.1 44.8L48.3 44.8C54.7 44.8 59.8 50 59.8 56.3L59.8 108.5C59.8 110.5 59.3 112.4 58.3 114.2L39.2 138.8L24.2 138.8ZM168.5 226.9L79.6 226.9L79.6 174.9L168.5 174.9ZM168.5 171.6L79.6 171.6L79.6 44.5L168.5 44.5Z" sodipodi:nodetypes="cccccccccccccccccccccccccccccccccccccccccccccccccccccccccc"/><path id="shape1" transform="matrix(0.72 0 0 0.72 96.1199999999999 96.264)" fill="#646464" stroke-opacity="0" stroke="#000000" stroke-width="0" stroke-linecap="square" stroke-linejoin="bevel" d="M5.5 49.6L44.1 49.6C47.1 49.6 49.6 47.1 49.6 44.1L49.6 5.5C49.6 2.5 47.1 0 44.1 0L5.5 0C2.5 0 0 2.5 0 5.5L0 44.1C0 47.1 2.4 49.6 5.5 49.6ZM1 5.5C1 3 3 1 5.5 1L44.1 1C46.6 1 48.6 3 48.6 5.5L48.6 44.1C48.6 46.6 46.6 48.6 44.1 48.6L5.5 48.6C3 48.6 1 46.6 1 44.1Z" sodipodi:nodetypes="cccccccccccccccccc"/><path id="shape2" transform="matrix(0.72 0 0 0.72 99.072 147.528)" fill="#646464" stroke-opacity="0" stroke="#000000" stroke-width="0" stroke-linecap="square" stroke-linejoin="bevel" d="M4.9 43.7L36.1 43.7L36.1 11.1L40.9 11.1L40.9 6.4L23.3 6.4L23.3 0L17.6 0L17.6 6.4L0 6.4L0 11.1L4.8 11.1L4.8 43.7ZM7.8 11.8L32.7 11.8L32.7 41L7.8 41Z" sodipodi:nodetypes="ccccccccccccccccccc"/><path id="shape3" transform="matrix(0.72 0 0 0.72 106.056 158.976)" fill="#646464" stroke-opacity="0" stroke="#000000" stroke-width="0" stroke-linecap="square" stroke-linejoin="bevel" d="M15.8 2.1C11.9 -0.7 8.9 -0.7 4.7 2.1C3.3 3.1 3.1 3.1 0 2.1L0 23.5L21.2 23.5L21.2 2.1C18.3 3.8 17 3.8 15.8 2.1Z" sodipodi:nodetypes="ccccccc"/><g id="obj_pump" transform="matrix(0.72 0 0 0.72 0 0)" fill="none">
  <path id="shape4" transform="translate(287, 181.2)" fill="#bbbbbb" stroke-opacity="0" stroke="#000000" stroke-width="0" stroke-linecap="square" stroke-linejoin="bevel" d="M6.6 3.3C6.6 1.5 5.1 0 3.3 0C1.5 0 0 1.5 0 3.3C0 5.1 1.5 6.6 3.3 6.6C5.1 6.6 6.6 5.1 6.6 3.3Z" sodipodi:nodetypes="ccccc"/>
  <path id="shape5" transform="translate(273.1, 179)" fill="#bbbbbb" stroke-opacity="0" stroke="#000000" stroke-width="0" stroke-linecap="square" stroke-linejoin="bevel" d="M1.9 11L1.9 8.7L7.1 8.7C6.8 7.7 6.6 6.6 6.6 5.5C6.6 4.4 6.8 3.4 7 2.5L1.9 2.5L1.9 0.4C1.9 0.2 1.7 0 1.5 0L0.4 0C0.2 0 0 0.2 0 0.4L0 11C0 11.2 0.2 11.4 0.4 11.4L1.5 11.4C1.7 11.3 1.9 11.2 1.9 11Z" sodipodi:nodetypes="cccccccccccccc"/>
  <path id="shape6" transform="translate(281.3, 190.1)" fill="#bbbbbb" stroke-opacity="0" stroke="#000000" stroke-width="0" stroke-linecap="square" stroke-linejoin="bevel" d="M0 0C0.1 0.7 0.3 1.5 0.5 2.2C0.6 2.7 0.8 3 1.5 3.2C2.3 3.4 3.1 3.6 3.8 3.7C2.2 2.8 0.9 1.5 0 0Z" sodipodi:nodetypes="ccccc"/>
  <path id="shape7" transform="translate(295.5, 190)" fill="#bbbbbb" stroke-opacity="0" stroke="#000000" stroke-width="0" stroke-linecap="square" stroke-linejoin="bevel" d="M0 3.8C0.8 3.7 1.5 3.5 2.3 3.3C2.9 3.1 3.1 2.9 3.3 2.3C3.5 1.5 3.7 0.8 3.8 0C2.9 1.6 1.6 2.9 0 3.8Z" sodipodi:nodetypes="ccccc"/>
  <path id="shape8" transform="translate(300.3, 179.073401367629)" fill="#bbbbbb" stroke-opacity="0" stroke="#000000" stroke-width="0" stroke-linecap="square" stroke-linejoin="bevel" d="M4.8 0.326599L4.8 2.4266L0.1 2.4266C0.4 3.4266 0.5 4.4266 0.5 5.4266C0.5 6.5266 0.3 7.6266 0 8.6266L4.8 8.6266L4.8 10.9266C4.8 11.1266 5 11.3266 5.2 11.3266L6.3 11.3266C6.5 11.3266 6.7 11.1266 6.7 10.9266L6.7 0.426599C6.7 0.226599 6.5 0.0265986 6.3 0.0265986L5.2 0.0265986C5 -0.0734014 4.8 0.126599 4.8 0.326599Z" sodipodi:nodetypes="cccccccccccccc"/>
  <path id="shape9" transform="translate(281.5, 171)" fill="#bbbbbb" stroke-opacity="0" stroke="#000000" stroke-width="0" stroke-linecap="square" stroke-linejoin="bevel" d="M8.8 2.8C12.5 2.8 15.8 4.8 17.7 7.7C17.6 7.2 17.5 6.7 17.4 6.2C17.4 5.7 17 5.4 16.5 5.2L16.5 0.4C16.5 0.2 16.3 0 16.1 0L1.5 0C1.5 0 1.3 0 1.2 0.1C1.1 0.2 1.1 0.3 1.1 0.3L1.1 5.1C0.6 5.3 0.4 5.5 0.3 6C0.2 6.5 0.1 7 0 7.5C1.8 4.7 5.1 2.8 8.8 2.8Z" sodipodi:nodetypes="ccccccccccccc"/>
  <path id="shape10" transform="translate(280.7, 174.8)" fill="#bbbbbb" stroke-opacity="0" stroke="#000000" stroke-width="0" stroke-linecap="square" stroke-linejoin="bevel" d="M19.2 9.7C19.2 4.3 14.9 0 9.6 0C4.3 0 0 4.3 0 9.7C0 15.1 4.3 19.4 9.6 19.4C14.9 19.4 19.2 15.1 19.2 9.7ZM2.4 9.7C2.4 5.7 5.6 2.5 9.6 2.5C13.6 2.5 16.8 5.7 16.8 9.7C16.8 13.7 13.6 16.9 9.6 16.9C5.6 16.9 2.4 13.7 2.4 9.7Z" sodipodi:nodetypes="cccccccccc"/>
 </g><g id="obj_flame" transform="matrix(0.72 0 0 0.72 0 0)" fill="none">
  <path id="shape11" transform="translate(143.505236538051, 140)" fill="#bbbbbb" fill-rule="evenodd" stroke-opacity="0" stroke="#000000" stroke-width="0" stroke-linecap="square" stroke-linejoin="bevel" d="M0.0947635 31.7C0.494763 36.6 3.79476 43.5 12.3948 41.7C8.79476 40.7 5.89476 37.4 4.69476 31.3C5.49476 31.5 6.59476 32.2 6.99476 32.4C6.79476 31.5 7.09476 29 8.39476 26C9.89476 33.7 10.9948 35 12.4948 35.3C11.0948 31.6 11.1948 28.4 12.3948 25.9C12.9948 28.3 14.1948 30.1 15.2948 31.3C17.0948 29.1 17.8948 26.2 17.0948 19.9C21.0948 25.2 20.7948 28.5 19.4948 30.5C20.5948 30.2 22.1948 28.7 23.2948 26.1C24.2948 27.3 24.0948 29.5 23.1948 32C23.7948 31.8 24.7948 31.4 25.3948 30.9C24.3948 38.2 20.1948 39.1 16.1948 41.3C21.8948 43.6 31.2948 40.2 32.3948 32.5C32.6948 31.2 32.2948 29.3 31.9948 27.8C31.3948 28.8 31.0948 30.1 30.1948 30.6C29.9948 29.2 30.3948 28 30.9948 26.8C32.0948 22.5 31.3948 18.9 29.0948 16.1C28.6948 18.2 28.1948 20 27.1948 20.5C26.0948 14 24.0948 9.5 21.6948 8.3C21.8948 10.2 21.7948 11.8 21.0948 13.2C19.0948 6 15.5948 6.5 14.5948 0C13.5948 0.7 13.3948 2.3 13.1948 3.7C13.1948 6.6 13.3948 9.4 12.1948 10.8C11.0948 8.7 10.0948 7 8.29476 6.8C9.59476 9.5 9.09476 14.2 7.19476 19.3C6.49476 18 5.29476 15.4 3.59476 15C3.99476 18.4 3.49476 22.3 2.69476 25.9C2.19476 25.1 1.19476 24.2 0.0947635 23.6C1.29476 26.8 -0.405237 28.2 0.0947635 31.7ZM15.6948 9.8C15.8948 12.5 15.6948 15.3 14.8948 16.7C14.7948 14.1 14.4948 12.6 15.6948 9.8Z" sodipodi:nodetypes="cccccccccccccccccccccccccccccccccc"/>
 </g><g id="label_fan-rpm" transform="matrix(0.72 0 0 0.72 0 0)" fill="none">
  <path id="frame_2_" transform="translate(258.8, 26)" fill="#ffffff" stroke="#c8c8c8" stroke-width="1.0555" stroke-linecap="butt" stroke-linejoin="miter" stroke-miterlimit="10" d="M74 29.5L3 29.5C1.4 29.5 0 28.2 0 26.5L0 3C0 1.4 1.4 0 3 0L74 0C75.6 0 77 1.4 77 3L77 26.5C77 28.2 75.7 29.5 74 29.5Z" sodipodi:nodetypes="ccccccccc"/>
  <g id="symb_fan-rpm" fill="none">
   <path id="shape12" transform="translate(258.8, 26)" fill="#c8c8c8" stroke-opacity="0" stroke="#000000" stroke-width="0" stroke-linecap="square" stroke-linejoin="bevel" d="M29 29.5L3 29.5C1.4 29.5 0 28.2 0 26.5L0 3C0 1.4 1.4 0 3 0L29 0C30.7 0 32 1.4 32 3L32 26.5C32 28.2 30.6 29.5 29 29.5Z" sodipodi:nodetypes="ccccccccc"/>
   <path id="shape13" transform="translate(263.1, 30.0555555555555)" fill="#646464" stroke-opacity="0" stroke="#000000" stroke-width="0" stroke-linecap="square" stroke-linejoin="bevel" d="M23 12.0444L23 8.94444C23 8.94444 23 8.74444 22.8 8.64444C22.6 8.54444 22.4 8.54444 22.4 8.54444L16.2 8.54444C16.2 8.54444 15.9 8.54444 15.9 8.74444C15.8 8.94444 15.9 9.04444 15.9 9.04444L15.9 9.64444L14.5 9.74444L13.9 8.64444L14.5 7.54444L15.3 7.94444C15.3 7.94444 15.5 8.04444 15.6 7.84444C15.7 7.74444 18.8 2.24444 18.8 2.24444C18.8 2.24444 19 2.04444 18.8 1.84444C18.7 1.64444 18.5 1.54444 18.5 1.54444L15.8 0.0444444C15.8 0.0444444 15.7 -0.0555556 15.5 0.0444444C15.3 0.144444 15.2 0.344444 15.2 0.344444L12.1 5.64444C12.1 5.64444 12 5.94444 12.1 6.04444C12.2 6.14444 12.3 6.24444 12.3 6.24444L12.8 6.54444L12.1 7.74444L10.8 7.74444L10.1 6.64444L10.8 6.14444C10.8 6.14444 11 6.04444 10.9 5.84444C10.8 5.74444 7.7 0.244444 7.7 0.244444C7.7 0.244444 7.6 0.0444444 7.3 0.0444444C7 0.0444444 6.9 0.144444 6.9 0.144444L4.2 1.74444C4.2 1.74444 4.1 1.84444 4 2.04444C4 2.24444 4.1 2.44444 4.1 2.44444L7.2 7.74444C7.2 7.74444 7.4 7.94444 7.6 7.94444C7.8 7.94444 7.9 7.84444 7.9 7.84444L8.4 7.54444L9.1 8.74444L8.5 9.84444L7.2 9.84444L7.2 8.94444C7.2 8.94444 7.2 8.74444 6.9 8.74444C6.7 8.74444 0.5 8.74444 0.5 8.74444C0.5 8.74444 0.2 8.74444 0.1 8.94444C0 9.14444 0 9.34444 0 9.34444L0 12.4444C0 12.4444 0 12.6444 0.2 12.7444C0.4 12.8444 0.6 12.8444 0.6 12.8444L6.8 12.8444C6.8 12.8444 7.1 12.8444 7.1 12.6444C7.2 12.4444 7.1 12.3444 7.1 12.3444L7.1 11.7444L8.5 11.6444L9.1 12.7444L8.5 13.8444L7.7 13.4444C7.7 13.4444 7.5 13.3444 7.4 13.5444C7.3 13.6444 4.2 19.1444 4.2 19.1444C4.2 19.1444 4 19.3444 4.2 19.5444C4.3 19.7444 4.5 19.8444 4.5 19.8444L7.2 21.3444C7.2 21.3444 7.3 21.4444 7.5 21.3444C7.7 21.2444 7.8 21.0444 7.8 21.0444L10.9 15.7444C10.9 15.7444 11 15.4444 10.9 15.3444C10.8 15.2444 10.7 15.1444 10.7 15.1444L10.2 14.8444L10.9 13.6444L12.2 13.6444L12.9 14.7444L12.2 15.2444C12.2 15.2444 12 15.3444 12.1 15.5444C12.2 15.6444 15.3 21.1444 15.3 21.1444C15.3 21.1444 15.4 21.3444 15.7 21.3444C16 21.3444 16.1 21.2444 16.1 21.2444L18.8 19.6444C18.8 19.6444 18.9 19.5444 19 19.3444C19 19.1444 18.9 18.9444 18.9 18.9444L15.8 13.6444C15.8 13.6444 15.6 13.4444 15.4 13.4444C15.2 13.4444 15.1 13.5444 15.1 13.5444L14.6 13.8444L13.9 12.6444L14.5 11.5444L15.8 11.5444L15.8 12.4444C15.8 12.4444 15.8 12.6444 16.1 12.6444C16.3 12.6444 22.5 12.6444 22.5 12.6444C22.5 12.6444 22.8 12.6444 22.9 12.4444C23.1 12.2444 23 12.0444 23 12.0444ZM11.7 11.9444C11 11.9444 10.5 11.4444 10.5 10.7444C10.5 10.0444 11 9.54444 11.7 9.54444C12.4 9.54444 12.9 10.0444 12.9 10.7444C12.9 11.3444 12.3 11.9444 11.7 11.9444Z" sodipodi:nodetypes="cccccccccccccccccccccccccccccccccccccccccccccccccccccccccccccccccccccccccccccccccccccccccccccccc"/>
  </g>
 </g><text id="txt_fan-rpm" krita:useRichText="false" text-rendering="auto" krita:textVersion="3" transform="matrix(0.72 0 0 0.72 225 33.84144)" fill="#000000" stroke-opacity="0" stroke="#000000" stroke-width="0" stroke-linecap="square" stroke-linejoin="bevel" style="text-align: start;text-align-last: auto;font-size: 14;">%</text><g id="label_boiler-temp" transform="matrix(0.72 0 0 0.72 0 0)" fill="none">
  <path id="frame_4_" transform="translate(127.5, 86.2)" fill="#ffffff" stroke="#c8c8c8" stroke-width="0.9237" stroke-linecap="butt" stroke-linejoin="miter" stroke-miterlimit="10" d="M58.1 30.5L3 30.5C1.4 30.5 0 29.2 0 27.5L0 3C0 1.4 1.3 0 3 0L58.1 0C59.8 0 61.1 1.4 61.1 3L61.1 27.5C61.1 29.2 59.8 30.5 58.1 30.5Z" sodipodi:nodetypes="ccccccccc"/>
  <g id="symb_thermometer_2_" fill="none">
   <path id="shape14" transform="translate(127.5, 86.2)" fill="#c8c8c8" stroke-opacity="0" stroke="#000000" stroke-width="0" stroke-linecap="square" stroke-linejoin="bevel" d="M13.6 30.5L3 30.5C1.4 30.5 0 29.2 0 27.5L0 3C0 1.4 1.3 0 3 0L13.6 0C15.2 0 16.6 1.4 16.6 3L16.6 27.5C16.6 29.2 15.3 30.5 13.6 30.5Z" sodipodi:nodetypes="ccccccccc"/>
   <g id="group0" fill="none">
    <rect id="shape15" transform="translate(131.1, 97.3)" fill="#646464" stroke-opacity="0" stroke="#000000" stroke-width="0" stroke-linecap="square" stroke-linejoin="bevel" width="3" height="2.1"/>
    <rect id="shape16" transform="translate(131.1, 93.5)" fill="#646464" stroke-opacity="0" stroke="#000000" stroke-width="0" stroke-linecap="square" stroke-linejoin="bevel" width="3" height="2.1"/>
    <path id="shape17" transform="translate(132.3, 91.575)" fill="#646464" stroke-opacity="0" stroke="#000000" stroke-width="0" stroke-linecap="square" stroke-linejoin="bevel" d="M5.9 12.325L5.9 1.725C5.9 -0.575 2.5 -0.575 2.5 1.725L2.5 12.325C1 13.025 0 14.525 0 16.225C0 18.525 1.9 20.425 4.2 20.425C6.5 20.425 8.4 18.525 8.4 16.225C8.5 14.525 7.4 13.025 5.9 12.325Z" sodipodi:nodetypes="cccccccc"/>
    <rect id="shape18" transform="translate(131.1, 101)" fill="#646464" stroke-opacity="0" stroke="#000000" stroke-width="0" stroke-linecap="square" stroke-linejoin="bevel" width="3" height="2.1"/>
   </g>
  </g>
 </g><text id="txt_boiler-temp" krita:useRichText="false" text-rendering="auto" krita:textVersion="3" transform="matrix(0.72 0 0 0.72 119.16 77.224752)" fill="#000000" stroke-opacity="0" stroke="#000000" stroke-width="0" stroke-linecap="square" stroke-linejoin="bevel" style="text-align: start;text-align-last: auto;font-size: 14;">°C</text><g id="label_flue-gas" transform="matrix(0.72 0 0 0.72 0 0)" fill="none">
  <path id="frame" transform="translate(167.1, 26.2)" fill="#ffffff" stroke="#c8c8c8" stroke-width="0.9237" stroke-linecap="butt" stroke-linejoin="miter" stroke-miterlimit="10" d="M62.8 30.6L3 30.6C1.4 30.6 0 29.3 0 27.6L0 3C0 1.4 1.4 0 3 0L62.8 0C64.4 0 65.8 1.4 65.8 3L65.8 27.5C65.8 29.2 64.5 30.6 62.8 30.6Z" sodipodi:nodetypes="ccccccccc"/>
  <g id="symb_thermometer" fill="none">
   <path id="shape19" transform="translate(167.1, 26.2)" fill="#c8c8c8" stroke-opacity="0" stroke="#000000" stroke-width="0" stroke-linecap="square" stroke-linejoin="bevel" d="M13.6 30.6L3 30.6C1.4 30.6 0 29.3 0 27.6L0 3C0 1.4 1.4 0 3 0L13.6 0C15.2 0 16.6 1.4 16.6 3L16.6 27.5C16.6 29.2 15.2 30.6 13.6 30.6Z" sodipodi:nodetypes="ccccccccc"/>
   <g id="_x3C_Zusammengesetzter_Pfad_x3E_" fill="none">
    <rect id="shape20" transform="translate(170.6, 37.3)" fill="#646464" stroke-opacity="0" stroke="#000000" stroke-width="0" stroke-linecap="square" stroke-linejoin="bevel" width="3" height="2.1"/>
    <rect id="shape21" transform="translate(170.6, 33.5)" fill="#646464" stroke-opacity="0" stroke="#000000" stroke-width="0" stroke-linecap="square" stroke-linejoin="bevel" width="3" height="2.1"/>
    <path id="shape22" transform="translate(171.9, 31.575)" fill="#646464" stroke-opacity="0" stroke="#000000" stroke-width="0" stroke-linecap="square" stroke-linejoin="bevel" d="M5.9 12.425L5.9 1.725C5.9 -0.575 2.5 -0.575 2.5 1.725L2.5 12.425C1 13.125 0 14.625 0 16.325C0 18.625 1.9 20.525 4.2 20.525C6.5 20.525 8.4 18.625 8.4 16.325C8.4 14.525 7.4 13.025 5.9 12.425Z" sodipodi:nodetypes="cccccccc"/>
    <rect id="shape23" transform="translate(170.6, 41)" fill="#646464" stroke-opacity="0" stroke="#000000" stroke-width="0" stroke-linecap="square" stroke-linejoin="bevel" width="3" height="2.1"/>
   </g>
  </g>
 </g><text id="txt_flue-gas" krita:useRichText="false" text-rendering="auto" krita:textVersion="3" transform="matrix(0.72 0 0 0.72 149.4 34.037784)" fill="#000000" stroke-opacity="0" stroke="#000000" stroke-width="0" stroke-linecap="square" stroke-linejoin="bevel" style="text-align: start;text-align-last: auto;font-size: 14;">°C</text><g id="label_lambda" transform="matrix(0.72 0 0 0.72 0 0)" fill="none">
  <path id="frame_3_" transform="translate(258.8, 60.8)" fill="#ffffff" stroke="#c8c8c8" stroke-width="1.0555" stroke-linecap="butt" stroke-linejoin="miter" stroke-miterlimit="10" d="M74 29.5L3 29.5C1.4 29.5 0 28.1 0 26.5L0 3C0 1.3 1.4 0 3 0L74 0C75.6 0 77 1.3 77 3L77 26.5C77 28.1 75.7 29.5 74 29.5Z" sodipodi:nodetypes="ccccccccc"/>
  <g id="symb_lambda" fill="none">
   <path id="shape24" transform="translate(258.8, 60.8)" fill="#c8c8c8" stroke-opacity="0" stroke="#000000" stroke-width="0" stroke-linecap="square" stroke-linejoin="bevel" d="M29 29.5L3 29.5C1.4 29.5 0 28.1 0 26.5L0 3C0 1.3 1.4 0 3 0L29 0C30.7 0 32 1.3 32 3L32 26.5C32 28.1 30.6 29.5 29 29.5Z" sodipodi:nodetypes="ccccccccc"/>
   <g id="group1" fill="none">
    <path id="shape25" transform="translate(279.7, 64.9)" fill="#646464" stroke-opacity="0" stroke="#000000" stroke-width="0" stroke-linecap="square" stroke-linejoin="bevel" d="M5.5 5.3C6.7 4.1 6.7 2.1 5.5 0.9C4.3 -0.3 2.3 -0.3 1.1 0.9L0 2L4.4 6.4ZM1.9 2.1C1.7 2.3 1.4 2.3 1.2 2.1C1 1.9 1 1.6 1.2 1.4C1.4 1.2 1.7 1.2 1.9 1.4C2.1 1.6 2.1 1.9 1.9 2.1ZM3.4 3.6C3.2 3.8 2.9 3.8 2.7 3.6C2.5 3.4 2.5 3.1 2.7 2.9C2.9 2.7 3.2 2.7 3.4 2.9C3.6 3.1 3.6 3.4 3.4 3.6ZM4.3 4.5C4.5 4.3 4.8 4.3 5 4.5C5.2 4.7 5.2 5 5 5.2C4.8 5.4 4.5 5.4 4.3 5.2C4.1 5 4.1 4.7 4.3 4.5Z" sodipodi:nodetypes="ccccccccccccccccccccc"/>
    <path id="shape26" transform="translate(264.2, 70.2)" fill="#646464" stroke-opacity="0" stroke="#000000" stroke-width="0" stroke-linecap="square" stroke-linejoin="bevel" d="M15.8 4.5L11.3 0L4.9 6.4C4.8 6.5 4.7 6.7 4.6 6.8C4.6 6.8 4.6 6.8 4.6 6.8C3.9 7.9 4.4 8.9 5.3 9.9L5.4 10C5.2 10.2 4.8 10.6 4.4 11C3.5 11.9 3.3 12.7 3.2 13.3C3.1 13.6 3.1 13.8 3 14C2.7 14.5 1.5 14.8 0.8 14.8C0.3 14.8 0 15.2 0 15.7C0 15.9 0.1 16.1 0.2 16.2C0.4 16.4 0.6 16.5 0.9 16.4C1.2 16.4 3.6 16.2 4.4 14.7C4.7 14.3 4.7 13.8 4.8 13.5C4.9 13 5 12.6 5.5 12.1C5.9 11.7 6.3 11.3 6.5 11.1C7.2 11.7 7.9 12.2 8.6 12.1C8.6 12.1 8.6 12.1 8.6 12.1C8.6 12.1 8.7 12.1 8.7 12.1C8.7 12.1 8.8 12.1 8.8 12.1C8.8 12.1 8.8 12.1 8.9 12.1C9 12.1 9 12.1 9.1 12.1C9.1 12.1 9.1 12.1 9.1 12.1C9.2 12.1 9.2 12 9.3 12C9.3 12 9.3 12 9.3 12C9.4 12 9.5 11.9 9.6 11.8C9.6 11.8 9.6 11.8 9.6 11.8C9.7 11.7 9.9 11.6 10 11.5L16.4 5.1L15.8 4.5C15.8 4.5 15.8 4.5 15.8 4.5Z" sodipodi:nodetypes="ccccccccccccccccccccccccccccccccc"/>
    <path id="shape27" transform="translate(274, 65)" fill="#646464" stroke-opacity="0" stroke="#000000" stroke-width="0" stroke-linecap="square" stroke-linejoin="bevel" d="M9.6 6.7L5.3 2.4L5.2 2.3L5.2 2.3L4.3 1.4L2.9 0L0 2.8L1.5 4.3L2.5 5.3L6.7 9.5L6.8 9.6L6.8 9.6L7.7 10.5L9.2 12L12 9.1L10.6 7.7Z" sodipodi:nodetypes="ccccccccccccccccc"/>
   </g>
  </g>
 </g><text id="txt_lambda" krita:useRichText="false" text-rendering="auto" krita:textVersion="3" transform="matrix(0.72 0 0 0.72 225 58.888584)" fill="#000000" stroke-opacity="0" stroke="#000000" stroke-width="0" stroke-linecap="square" stroke-linejoin="bevel" style="text-align: start;text-align-last: auto;font-size: 14;">%</text><g id="label_pump-01-rpm" transform="matrix(0.72 0 0 0.72 0 0)" fill="none">
  <path id="shape28" transform="translate(304.3, 200.2)" fill="#ffffff" stroke="#c8c8c8" stroke-width="1.0555" stroke-linecap="butt" stroke-linejoin="miter" stroke-miterlimit="10" d="M74 29.5L3 29.5C1.4 29.5 0 28.1 0 26.5L0 3C0 1.3 1.4 0 3 0L74 0C75.6 0 77 1.3 77 3L77 26.5C77 28.2 75.6 29.5 74 29.5Z" sodipodi:nodetypes="ccccccccc"/>
  <g id="symb_rpm" fill="none">
   <path id="shape29" transform="translate(304.2, 200.2)" fill="#c8c8c8" stroke-opacity="0" stroke="#000000" stroke-width="0" stroke-linecap="square" stroke-linejoin="bevel" d="M29 29.5L3 29.5C1.4 29.5 0 28.1 0 26.5L0 3C0 1.3 1.4 0 3 0L29 0C30.6 0 32 1.3 32 3L32 26.5C32 28.2 30.7 29.5 29 29.5Z" sodipodi:nodetypes="ccccccccc"/>
   <g id="group2" fill="none">
    <path id="shape30" transform="translate(306.1, 205.6)" fill="#646464" stroke-opacity="0" stroke="#000000" stroke-width="0" stroke-linecap="square" stroke-linejoin="bevel" d="M13.5 0C6.1 0 0 6.1 0 13.5L0 14L3.5 14L3.5 13L1 13C1.1 9.9 2.4 7.1 4.3 5L6.1 6.8L6.8 6.1L5 4.3C7.1 2.3 9.9 1.1 13 1L13 3.5L14 3.5L14 1C17.1 1.1 19.9 2.3 22 4.3L20.3 6L21 6.7L22.7 5C24.7 7.1 25.9 9.9 26 13L23.5 13L23.5 14L27 14L27 13.5C27 6.1 21 0 13.5 0Z" sodipodi:nodetypes="cccccccccccccccccccccccc"/>
    <path id="shape31" transform="translate(316.561959183673, 213.5)" fill="#646464" stroke-opacity="0" stroke="#000000" stroke-width="0" stroke-linecap="square" stroke-linejoin="bevel" d="M1.03804 7.2C2.73804 8.9 4.03804 8 4.03804 8L8.23804 0L0.238041 4.2C0.238041 4.2 -0.661959 5.5 1.03804 7.2Z" sodipodi:nodetypes="ccccc"/>
   </g>
  </g>
 </g><text id="txt_pump-01-rpm" krita:useRichText="false" text-rendering="auto" krita:textVersion="3" transform="matrix(0.72 0 0 0.72 257.76 158.818032)" fill="#000000" stroke-opacity="0" stroke="#000000" stroke-width="0" stroke-linecap="square" stroke-linejoin="bevel" style="text-align: start;text-align-last: auto;font-size: 14;">%</text>
</svg>
