<svg xmlns="http://www.w3.org/2000/svg" xmlns:xlink="http://www.w3.org/1999/xlink" version="1.1" id="Ebene_1" x="0px" y="0px" viewBox="0 0 400 280" style="enable-background:new 0 0 400 280;" xml:space="preserve">
	<defs>
        <style>
            @import url("https://fonts.googleapis.com/css?family=Roboto:400,400i,700,700i");			
        </style>
	</defs> 
<style type="text/css">
	.stPumpActive{fill:#87AD27;}
	.stPumpInActive{fill:#BBBBBB;}
	.stHeatingOn{fill-rule:evenodd;clip-rule:evenodd;fill:#FF3232;}
	.stHeatingOff{fill-rule:evenodd;clip-rule:evenodd;fill:#BBBBBB;}
	.st0{fill:#6E8CA0;}
	.st1{fill:#C86464;}
	.st2{fill:#646464;}
	.st3{clip-path:url(#SVGID_2_);}
	.st4{fill:#87AD27;}
	.st5{fill-rule:evenodd;clip-rule:evenodd;fill:#FF3232;}
	.st6{fill:#FFFFFF;stroke:#C8C8C8;stroke-width:1.0555;stroke-miterlimit:10;}
	.st7{fill:#C8C8C8;}
	.st8{fill-rule:evenodd;clip-rule:evenodd;fill:#646464;}
	.st9{fill:#323232;}	.st10{font-family:normal;font-variant:normal;font-weight:normal;font-stretch:normal;font-family:Roboto,Arial,Helvetica,sans-serif;font-specification:'Roboto,Normal';font-variant-ligatures:normal;font-variant-caps:normal;font-variant-numeric:normal;font-feature-settings:normal;text-align:center;writing-mode:lr-tb;text-anchor:middle;}
	.st11{font-size:14px;}
	.st12{fill:#FFFFFF;stroke:#C8C8C8;stroke-width:0.9237;stroke-miterlimit:10;}
</style>
<path id="boiler-return-02" class="st0" d="M271.7,179h-1.1c-0.2,0-0.4,0.2-0.4,0.4v2.2H205l0,6h65.2v2.4c0,0.2,0.2,0.4,0.4,0.4h1.1  c0.2,0,0.4-0.2,0.4-0.4v-10.5C272.1,179.2,271.9,179,271.7,179z M240.8,186.8l-4.8-2.2l4.8-2.2V186.8z"/>
<path id="boiler-return-01" class="st0" d="M310,181.8v-2.4c0-0.2-0.2-0.4-0.4-0.4h-1.1c-0.2,0-0.4,0.2-0.4,0.4V190  c0,0.2,0.2,0.4,0.4,0.4h1.1c0.2,0,0.4-0.2,0.4-0.4v-2.2h65.1l0-6H310z M343,186.8l-4.8-2.2l4.8-2.2V186.8z"/>
<path id="boiler-flow" class="st1" d="M205.1,120.9v6h170.1v-6H205.1z M236,126.1v-4.4l4.8,2.2L236,126.1z M338.2,126.1v-4.4  l4.8,2.2L338.2,126.1z"/>
<g id="boiler">
	<path class="st2" d="M239.4,26l0,51.9h-33.6v-8.6c0-1.1-1-2.1-2.1-2.1h-91.2c-1.1,0-2.1,1-2.1,2.1v99H75l20.3-26.1l0.1-0.2   c1.3-2.3,2-4.9,2-7.5V82.3c0-8.3-6.8-15.1-15.1-15.1H49.1C40.8,67.2,34,74,34,82.3v52.2c0,2.6,0.7,5.2,2,7.5l20.4,26.3h0v12.4h53.9   v18.1c0,0.2,0,0.3,0.1,0.5c0,0.2-0.1,0.3-0.1,0.5v54.3c0,1.1,1,2.1,2.1,2.1h91.2c1.1,0,2.1-1,2.1-2.1v-54.3c0-0.2,0-0.3-0.1-0.5   c0-0.2,0.1-0.3,0.1-0.5V90.5l41,0c2.9,0,5.2-2.3,5.2-5.2V26H239.4z M39.1,140.2c-1-1.7-1.5-3.7-1.5-5.7V82.3   c0-6.4,5.2-11.5,11.5-11.5h33.2c6.4,0,11.5,5.2,11.5,11.5v52.2c0,2-0.5,3.9-1.5,5.7l-19.1,24.6H58.2L39.1,140.2z M202.5,252.9   h-88.9v-52h88.9V252.9z M202.5,197.6h-88.9V70.5h88.9V197.6z"/>
	<path class="st2" d="M139,183.3h38.6c3,0,5.5-2.5,5.5-5.5v-38.6c0-3-2.5-5.5-5.5-5.5H139c-3,0-5.5,2.5-5.5,5.5v38.6   C133.5,180.8,135.9,183.3,139,183.3z M134.5,139.2c0-2.5,2-4.5,4.5-4.5h38.6c2.5,0,4.5,2,4.5,4.5v38.6c0,2.5-2,4.5-4.5,4.5H139   c-2.5,0-4.5-2-4.5-4.5V139.2z"/>
	<path class="st4" d="M374,142.1l0,18.6h-8.8v-5.5c0-0.7-0.6-1.4-1.4-1.4h-58.8c-0.7,0-1.4,0.6-1.4,1.4v83.4c0,0.7,0.6,1.4,1.4,1.4   h58.8c0.7,0,1.4-0.6,1.4-1.4v-69.7l13.6,0c1.9,0,3.4-1.5,3.4-3.4v-23.4H374z M362.5,237.2h-56v-80.6h56V237.2z"/>
	<path class="st6" d="M345.3,213.5h-21.4c-2.8,0-5-2.3-5-5v-21.4c0-2.8,2.3-5,5-5h21.4c2.8,0,5,2.3,5,5v21.4   C350.3,211.3,348,213.5,345.3,213.5z"/>
	<path class="st7" d="M325.1,206.3c0.3,3.2,2.4,7.6,7.9,6.4c-2.3-0.7-4.2-2.7-4.9-6.7c0.5,0.1,1.2,0.6,1.5,0.7   c-0.1-0.6,0.1-2.2,0.9-4.1c1,5,1.7,5.8,2.6,6c-0.9-2.4-0.8-4.4-0.1-6.1c0.4,1.5,1.2,2.7,1.9,3.5c1.2-1.4,1.7-3.3,1.2-7.4   c2.6,3.4,2.4,5.5,1.5,6.8c0.7-0.2,1.7-1.2,2.4-2.8c0.7,0.8,0.5,2.2-0.1,3.8c0.4-0.1,1-0.4,1.4-0.7c-0.7,4.7-3.3,5.3-5.9,6.7   c3.6,1.5,9.7-0.7,10.4-5.7c0.2-0.9,0-2-0.3-3c-0.4,0.7-0.6,1.5-1.2,1.8c-0.1-0.9,0.1-1.7,0.5-2.5c0.7-2.8,0.2-5.1-1.2-6.9   c-0.2,1.3-0.6,2.5-1.2,2.8c-0.7-4.2-2-7.1-3.5-7.9c0.1,1.3,0,2.2-0.4,3.2c-1.3-4.7-3.6-4.3-4.2-8.5c-0.6,0.5-0.8,1.5-0.9,2.4   c0,1.9,0.1,3.7-0.6,4.6c-0.7-1.3-1.4-2.5-2.5-2.6c0.9,1.8,0.5,4.8-0.7,8.1c-0.5-0.8-1.2-2.5-2.3-2.8c0.2,2.2-0.1,4.7-0.6,7   c-0.3-0.5-1-1.1-1.7-1.5C325.9,203.2,324.8,204.1,325.1,206.3z M335.2,192.3c0.1,1.8,0,3.6-0.5,4.5   C334.6,195,334.4,194.1,335.2,192.3z"/>
</g>
<g id="obj_pump" class="stPumpInActive"><title>Aktueller Status der Pufferpumpe</title>
	<path d="M293.6,184.5c0-1.8-1.5-3.3-3.3-3.3c-1.8,0-3.3,1.5-3.3,3.3c0,1.8,1.5,3.3,3.3,3.3   C292.1,187.8,293.6,186.3,293.6,184.5z"/>
	<path d="M275,190v-2.3h5.2c-0.3-1-0.5-2.1-0.5-3.2c0-1.1,0.2-2.1,0.4-3H275v-2.1c0-0.2-0.2-0.4-0.4-0.4h-1.1   c-0.2,0-0.4,0.2-0.4,0.4V190c0,0.2,0.2,0.4,0.4,0.4h1.1C274.8,190.3,275,190.2,275,190z"/>
	<path d="M281.3,190.1c0.1,0.7,0.3,1.5,0.5,2.2c0.1,0.5,0.3,0.8,1,1c0.8,0.2,1.6,0.4,2.3,0.5   C283.5,192.9,282.2,191.6,281.3,190.1z"/>
	<path d="M295.5,193.8c0.8-0.1,1.5-0.3,2.3-0.5c0.6-0.2,0.8-0.4,1-1c0.2-0.8,0.4-1.5,0.5-2.3   C298.4,191.6,297.1,192.9,295.5,193.8z"/>
	<path d="M305.1,179.4v2.1h-4.7c0.3,1,0.4,2,0.4,3c0,1.1-0.2,2.2-0.5,3.2h4.8v2.3c0,0.2,0.2,0.4,0.4,0.4h1.1   c0.2,0,0.4-0.2,0.4-0.4v-10.5c0-0.2-0.2-0.4-0.4-0.4h-1.1C305.3,179,305.1,179.2,305.1,179.4z"/>
	<path d="M290.3,173.8c3.7,0,7,2,8.9,4.9c-0.1-0.5-0.2-1-0.3-1.5c0-0.5-0.4-0.8-0.9-1v-4.8c0-0.2-0.2-0.4-0.4-0.4   l-14.6,0c0,0-0.2,0-0.3,0.1c-0.1,0.1-0.1,0.2-0.1,0.2l0,4.8c-0.5,0.2-0.7,0.4-0.8,0.9c-0.1,0.5-0.2,1-0.3,1.5   C283.3,175.7,286.6,173.8,290.3,173.8z"/>
	<path d="M299.9,184.5c0-5.4-4.3-9.7-9.6-9.7c-5.3,0-9.6,4.3-9.6,9.7c0,5.4,4.3,9.7,9.6,9.7   C295.6,194.2,299.9,189.9,299.9,184.5z M283.1,184.5c0-4,3.2-7.2,7.2-7.2c4,0,7.2,3.2,7.2,7.2c0,4-3.2,7.2-7.2,7.2   C286.3,191.7,283.1,188.5,283.1,184.5z"/>
</g>
<g id="obj_flame" class="stHeatingOff"><title>Betriebszustand</title>
	<path d="M143.6,171.7c0.4,4.9,3.7,11.8,12.3,10c-3.6-1-6.5-4.3-7.7-10.4c0.8,0.2,1.9,0.9,2.3,1.1  c-0.2-0.9,0.1-3.4,1.4-6.4c1.5,7.7,2.6,9,4.1,9.3c-1.4-3.7-1.3-6.9-0.1-9.4c0.6,2.4,1.8,4.2,2.9,5.4c1.8-2.2,2.6-5.1,1.8-11.4  c4,5.3,3.7,8.6,2.4,10.6c1.1-0.3,2.7-1.8,3.8-4.4c1,1.2,0.8,3.4-0.1,5.9c0.6-0.2,1.6-0.6,2.2-1.1c-1,7.3-5.2,8.2-9.2,10.4  c5.7,2.3,15.1-1.1,16.2-8.8c0.3-1.3-0.1-3.2-0.4-4.7c-0.6,1-0.9,2.3-1.8,2.8c-0.2-1.4,0.2-2.6,0.8-3.8c1.1-4.3,0.4-7.9-1.9-10.7  c-0.4,2.1-0.9,3.9-1.9,4.4c-1.1-6.5-3.1-11-5.5-12.2c0.2,1.9,0.1,3.5-0.6,4.9c-2-7.2-5.5-6.7-6.5-13.2c-1,0.7-1.2,2.3-1.4,3.7  c0,2.9,0.2,5.7-1,7.1c-1.1-2.1-2.1-3.8-3.9-4c1.3,2.7,0.8,7.4-1.1,12.5c-0.7-1.3-1.9-3.9-3.6-4.3c0.4,3.4-0.1,7.3-0.9,10.9  c-0.5-0.8-1.5-1.7-2.6-2.3C144.8,166.8,143.1,168.2,143.6,171.7z M159.2,149.8c0.2,2.7,0,5.5-0.8,6.9  C158.3,154.1,158,152.6,159.2,149.8z"/>
</g>
<g id="label_fan-rpm"><title>Drehzahl des Saugzuggebläses</title>
	<path id="frame_2_" class="st6" d="M332.8,55.5h-71c-1.6,0-3-1.3-3-3V29c0-1.6,1.4-3,3-3h71c1.6,0,3,1.4,3,3v23.5   C335.8,54.2,334.5,55.5,332.8,55.5z"/>
	<g id="symb_fan-rpm">
		<path class="st7" d="M287.8,55.5h-26c-1.6,0-3-1.3-3-3V29c0-1.6,1.4-3,3-3h26c1.7,0,3,1.4,3,3v23.5    C290.8,54.2,289.4,55.5,287.8,55.5z"/>
		<path class="st2" d="M286.1,42.1l0-3.1c0,0,0-0.2-0.2-0.3c-0.2-0.1-0.4-0.1-0.4-0.1l-6.2,0c0,0-0.3,0-0.3,0.2    c-0.1,0.2,0,0.3,0,0.3l0,0.6l-1.4,0.1l-0.6-1.1l0.6-1.1l0.8,0.4c0,0,0.2,0.1,0.3-0.1c0.1-0.1,3.2-5.6,3.2-5.6s0.2-0.2,0-0.4    c-0.1-0.2-0.3-0.3-0.3-0.3l-2.7-1.5c0,0-0.1-0.1-0.3,0c-0.2,0.1-0.3,0.3-0.3,0.3l-3.1,5.3c0,0-0.1,0.3,0,0.4    c0.1,0.1,0.2,0.2,0.2,0.2l0.5,0.3l-0.7,1.2l-1.3,0l-0.7-1.1l0.7-0.5c0,0,0.2-0.1,0.1-0.3c-0.1-0.1-3.2-5.6-3.2-5.6    s-0.1-0.2-0.4-0.2c-0.3,0-0.4,0.1-0.4,0.1l-2.7,1.6c0,0-0.1,0.1-0.2,0.3c0,0.2,0.1,0.4,0.1,0.4l3.1,5.3c0,0,0.2,0.2,0.4,0.2    c0.2,0,0.3-0.1,0.3-0.1l0.5-0.3l0.7,1.2l-0.6,1.1l-1.3,0l0-0.9c0,0,0-0.2-0.3-0.2c-0.2,0-6.4,0-6.4,0s-0.3,0-0.4,0.2    c-0.1,0.2-0.1,0.4-0.1,0.4l0,3.1c0,0,0,0.2,0.2,0.3c0.2,0.1,0.4,0.1,0.4,0.1l6.2,0c0,0,0.3,0,0.3-0.2c0.1-0.2,0-0.3,0-0.3l0-0.6    l1.4-0.1l0.6,1.1l-0.6,1.1l-0.8-0.4c0,0-0.2-0.1-0.3,0.1c-0.1,0.1-3.2,5.6-3.2,5.6s-0.2,0.2,0,0.4c0.1,0.2,0.3,0.3,0.3,0.3    l2.7,1.5c0,0,0.1,0.1,0.3,0c0.2-0.1,0.3-0.3,0.3-0.3l3.1-5.3c0,0,0.1-0.3,0-0.4c-0.1-0.1-0.2-0.2-0.2-0.2l-0.5-0.3l0.7-1.2l1.3,0    l0.7,1.1l-0.7,0.5c0,0-0.2,0.1-0.1,0.3c0.1,0.1,3.2,5.6,3.2,5.6s0.1,0.2,0.4,0.2c0.3,0,0.4-0.1,0.4-0.1l2.7-1.6    c0,0,0.1-0.1,0.2-0.3c0-0.2-0.1-0.4-0.1-0.4l-3.1-5.3c0,0-0.2-0.2-0.4-0.2c-0.2,0-0.3,0.1-0.3,0.1l-0.5,0.3l-0.7-1.2l0.6-1.1    l1.3,0l0,0.9c0,0,0,0.2,0.3,0.2c0.2,0,6.4,0,6.4,0s0.3,0,0.4-0.2C286.2,42.3,286.1,42.1,286.1,42.1z M274.8,42    c-0.7,0-1.2-0.5-1.2-1.2c0-0.7,0.5-1.2,1.2-1.2c0.7,0,1.2,0.5,1.2,1.2C276,41.4,275.4,42,274.8,42z"/>
	</g>
</g>
<text id="txt_fan-rpm" transform="matrix(1 0 0 1 312.5 47.002)" class="st9 st10 st11">%</text>
<g id="label_boiler-temp"><title>Kesseltemperatur</title>
	<path id="frame_4_" class="st12" d="M185.6,116.7h-55.1c-1.6,0-3-1.3-3-3V89.2c0-1.6,1.3-3,3-3h55.1c1.7,0,3,1.4,3,3v24.5   C188.6,115.4,187.3,116.7,185.6,116.7z"/>
	<g id="symb_thermometer_2_">
		<path class="st7" d="M141.1,116.7h-10.6c-1.6,0-3-1.3-3-3V89.2c0-1.6,1.3-3,3-3h10.6c1.6,0,3,1.4,3,3v24.5    C144.1,115.4,142.8,116.7,141.1,116.7z"/>
		<g>
			<rect x="131.1" y="97.3" class="st2" width="3" height="2.1"/>
			<rect x="131.1" y="93.5" class="st2" width="3" height="2.1"/>
			<path class="st2" d="M138.2,103.9V93.3c0-2.3-3.4-2.3-3.4,0v10.6c-1.5,0.7-2.5,2.2-2.5,3.9c0,2.3,1.9,4.2,4.2,4.2     c2.3,0,4.2-1.9,4.2-4.2C140.8,106.1,139.7,104.6,138.2,103.9z"/>
			<rect x="131.1" y="101" class="st2" width="3" height="2.1"/>
		</g>
	</g>
</g>
<text id="txt_boiler-temp" transform="matrix(1 0 0 1 165.5 107.2566)" class="st9 st10 st11">°C</text>
<g id="label_flue-gas"><title>Abgastemperatur</title>
	<path id="frame" class="st12" d="M229.9,56.8h-59.8c-1.6,0-3-1.3-3-3V29.2c0-1.6,1.4-3,3-3h59.8c1.6,0,3,1.4,3,3v24.5   C232.9,55.4,231.6,56.8,229.9,56.8z"/>
	<g id="symb_thermometer">
		<path class="st7" d="M180.7,56.8h-10.6c-1.6,0-3-1.3-3-3V29.2c0-1.6,1.4-3,3-3h10.6c1.6,0,3,1.4,3,3v24.5    C183.7,55.4,182.3,56.8,180.7,56.8z"/>
		<g id="_x3C_Zusammengesetzter_Pfad_x3E_">
			<rect x="170.6" y="37.3" class="st2" width="3" height="2.1"/>
			<rect x="170.6" y="33.5" class="st2" width="3" height="2.1"/>
			<path class="st2" d="M177.8,44V33.3c0-2.3-3.4-2.3-3.4,0V44c-1.5,0.7-2.5,2.2-2.5,3.9c0,2.3,1.9,4.2,4.2,4.2     c2.3,0,4.2-1.9,4.2-4.2C180.3,46.1,179.3,44.6,177.8,44z"/>
			<rect x="170.6" y="41" class="st2" width="3" height="2.1"/>
		</g>
	</g>
</g>
<text id="txt_flue-gas" transform="matrix(1 0 0 1 207.5 47.2747)" class="st9 st10 st11">°C</text>
<g id="label_lambda"><title>Restsauerstoffgehalt</title>
	<path id="frame_3_" class="st6" d="M332.8,90.3h-71c-1.6,0-3-1.4-3-3V63.8c0-1.7,1.4-3,3-3h71c1.6,0,3,1.3,3,3v23.5   C335.8,88.9,334.5,90.3,332.8,90.3z"/>
	<g id="symb_lambda">
		<path class="st7" d="M287.8,90.3h-26c-1.6,0-3-1.4-3-3V63.8c0-1.7,1.4-3,3-3h26c1.7,0,3,1.3,3,3v23.5    C290.8,88.9,289.4,90.3,287.8,90.3z"/>
		<g>
			<path class="st2" d="M285.2,70.2c1.2-1.2,1.2-3.2,0-4.4c-1.2-1.2-3.2-1.2-4.4,0l-1.1,1.1l4.4,4.4L285.2,70.2z M281.6,67     c-0.2,0.2-0.5,0.2-0.7,0c-0.2-0.2-0.2-0.5,0-0.7c0.2-0.2,0.5-0.2,0.7,0C281.8,66.5,281.8,66.8,281.6,67z M283.1,68.5     c-0.2,0.2-0.5,0.2-0.7,0c-0.2-0.2-0.2-0.5,0-0.7c0.2-0.2,0.5-0.2,0.7,0C283.3,68,283.3,68.3,283.1,68.5z M284,69.4     c0.2-0.2,0.5-0.2,0.7,0c0.2,0.2,0.2,0.5,0,0.7c-0.2,0.2-0.5,0.2-0.7,0C283.8,69.9,283.8,69.6,284,69.4z"/>
			<path class="st2" d="M280,74.7l-4.5-4.5l-6.4,6.4c-0.1,0.1-0.2,0.3-0.3,0.4c0,0,0,0,0,0c-0.7,1.1-0.2,2.1,0.7,3.1l0.1,0.1     c-0.2,0.2-0.6,0.6-1,1c-0.9,0.9-1.1,1.7-1.2,2.3c-0.1,0.3-0.1,0.5-0.2,0.7c-0.3,0.5-1.5,0.8-2.2,0.8c-0.5,0-0.8,0.4-0.8,0.9     c0,0.2,0.1,0.4,0.2,0.5c0.2,0.2,0.4,0.3,0.7,0.2c0.3,0,2.7-0.2,3.5-1.7c0.3-0.4,0.3-0.9,0.4-1.2c0.1-0.5,0.2-0.9,0.7-1.4     c0.4-0.4,0.8-0.8,1-1c0.7,0.6,1.4,1.1,2.1,1c0,0,0,0,0,0c0,0,0.1,0,0.1,0c0,0,0.1,0,0.1,0c0,0,0,0,0.1,0c0.1,0,0.1,0,0.2,0     c0,0,0,0,0,0c0.1,0,0.1-0.1,0.2-0.1c0,0,0,0,0,0c0.1,0,0.2-0.1,0.3-0.2c0,0,0,0,0,0c0.1-0.1,0.3-0.2,0.4-0.3l6.4-6.4L280,74.7     C280,74.7,280,74.7,280,74.7z"/>
			<polygon class="st2" points="283.6,71.7 279.3,67.4 279.2,67.3 279.2,67.3 278.3,66.4 276.9,65 274,67.8 275.5,69.3 276.5,70.3      280.7,74.5 280.8,74.6 280.8,74.6 281.7,75.5 283.2,77 286,74.1 284.6,72.7"/>
		</g>
	</g>
</g>
<text id="txt_lambda" transform="matrix(1 0 0 1 312.5 81.7897)" class="st9 st10 st11">%</text>
<g id="label_pump-01-rpm"><title>Pufferpumpen Ansteuerung</title>
	<path class="st6" d="M378.3,229.7h-71c-1.6,0-3-1.4-3-3v-23.5c0-1.7,1.4-3,3-3h71c1.6,0,3,1.3,3,3v23.5   C381.3,228.4,379.9,229.7,378.3,229.7z"/>
	<g id="symb_rpm">
		<path class="st7" d="M333.2,229.7h-26c-1.6,0-3-1.4-3-3v-23.5c0-1.7,1.4-3,3-3h26c1.6,0,3,1.3,3,3v23.5    C336.2,228.4,334.9,229.7,333.2,229.7z"/>
		<g>
			<path class="st2" d="M319.6,205.6c-7.4,0-13.5,6.1-13.5,13.5v0.5h3.5v-1h-2.5c0.1-3.1,1.4-5.9,3.3-8l1.8,1.8l0.7-0.7l-1.8-1.8     c2.1-2,4.9-3.2,8-3.3v2.5h1v-2.5c3.1,0.1,5.9,1.3,8,3.3l-1.7,1.7l0.7,0.7l1.7-1.7c2,2.1,3.2,4.9,3.3,8h-2.5v1h3.5v-0.5     C333.1,211.7,327.1,205.6,319.6,205.6z"/>
			<path class="st2" d="M317.6,220.7c1.7,1.7,3,0.8,3,0.8l4.2-8l-8,4.2C316.8,217.7,315.9,219,317.6,220.7z"/>
		</g>
	</g>
</g>
<text id="txt_pump-01-rpm" transform="matrix(1 0 0 1 358 220.5806)" class="st9 st10 st11">%</text>
</svg>
