<?xml version="1.0" standalone="no"?>
<!DOCTYPE svg PUBLIC "-//W3C//DTD SVG 20010904//EN" "http://www.w3.org/TR/2001/REC-SVG-20010904/DTD/svg10.dtd">
<!-- Created using Krita: https://krita.org -->
<svg xmlns="http://www.w3.org/2000/svg" 
    xmlns:xlink="http://www.w3.org/1999/xlink"
    xmlns:krita="http://krita.org/namespaces/svg/krita"
    xmlns:sodipodi="http://sodipodi.sourceforge.net/DTD/sodipodi-0.dtd"
    width="360pt"
    height="201.6pt"
    viewBox="0 0 360 201.6">
<defs/>
<path id="boiler-return-02" transform="matrix(0.72 0 0 0.72 12.0959999999999 144.144)" fill="#6e8ca0" stroke-opacity="0" stroke="#000000" stroke-width="0" stroke-linecap="square" stroke-linejoin="bevel" d="M86.6 0L85.5 0C85.3 0 85.1 0.2 85.1 0.4L85.1 2.6L0 2.6L0 8.6L85.2 8.6L85.2 11C85.2 11.2 85.4 11.4 85.6 11.4L86.7 11.4C86.9 11.4 87.1 11.2 87.1 11L87.1 0.5C87 0.2 86.8 0 86.6 0ZM43.4 7.8L38.6 5.6L43.4 3.4Z" sodipodi:nodetypes="ccccccccccccccccc"/><path id="boiler-return-01" transform="matrix(0.72 0 0 0.72 100.656 144.144)" fill="#6e8ca0" stroke-opacity="0" stroke="#000000" stroke-width="0" stroke-linecap="square" stroke-linejoin="bevel" d="M1.9 2.8L1.9 0.4C1.9 0.2 1.7 0 1.5 0L0.4 0C0.2 0 0 0.2 0 0.4L0 10.9C0 11.1 0.2 11.3 0.4 11.3L1.5 11.3C1.7 11.3 1.9 11.1 1.9 10.9L1.9 8.8L86.5 8.8L86.5 2.8ZM43.9 7.8L39.1 5.6L43.9 3.4Z" sodipodi:nodetypes="ccccccccccccccccc"/><path id="boiler-flow" transform="matrix(0.72 0 0 0.72 12.096 46.152)" fill="#c86464" stroke-opacity="0" stroke="#000000" stroke-width="0" stroke-linecap="square" stroke-linejoin="bevel" d="M119 0L119 88L0 88L0 94L125 94L125 6L209.5 6L209.5 0ZM39.2 93.2L39.2 88.8L44 91ZM162.7 5.2L162.7 0.8L167.5 3Z" sodipodi:nodetypes="ccccccccccccccccc"/><g id="obj_pump" transform="matrix(0.72 0 0 0.72 -252 0)" fill="none">
  <path id="shape0" transform="translate(468.7, 202.4)" fill="#bbbbbb" stroke-opacity="0" stroke="#000000" stroke-width="0" stroke-linecap="square" stroke-linejoin="bevel" d="M6.6 3.3C6.6 1.5 5.1 0 3.3 0C1.5 0 0 1.5 0 3.3C0 5.1 1.5 6.6 3.3 6.6C5.1 6.6 6.6 5.1 6.6 3.3Z" sodipodi:nodetypes="ccccc"/>
  <path id="shape1" transform="translate(454.7, 200.1)" fill="#bbbbbb" stroke-opacity="0" stroke="#000000" stroke-width="0" stroke-linecap="square" stroke-linejoin="bevel" d="M2 11L2 8.7L7.2 8.7C6.9 7.7 6.7 6.6 6.7 5.5C6.7 4.4 6.9 3.4 7.1 2.5L1.9 2.5L1.9 0.4C1.9 0.2 1.7 0 1.5 0L0.4 0C0.2 0 0 0.2 0 0.4L0 10.9C0 11.1 0.2 11.3 0.4 11.3L1.5 11.3C1.8 11.4 2 11.3 2 11Z" sodipodi:nodetypes="cccccccccccccc"/>
  <path id="shape2" transform="translate(463, 211.3)" fill="#bbbbbb" stroke-opacity="0" stroke="#000000" stroke-width="0" stroke-linecap="square" stroke-linejoin="bevel" d="M0 0C0.1 0.7 0.3 1.5 0.5 2.2C0.6 2.7 0.8 3 1.5 3.2C2.3 3.4 3.1 3.6 3.8 3.7C2.2 2.8 0.9 1.5 0 0Z" sodipodi:nodetypes="ccccc"/>
  <path id="shape3" transform="translate(477.3, 211.2)" fill="#bbbbbb" stroke-opacity="0" stroke="#000000" stroke-width="0" stroke-linecap="square" stroke-linejoin="bevel" d="M0 3.8C0.8 3.7 1.5 3.5 2.3 3.3C2.9 3.1 3.1 2.9 3.3 2.3C3.5 1.5 3.7 0.8 3.8 0C2.8 1.6 1.5 2.9 0 3.8Z" sodipodi:nodetypes="ccccc"/>
  <path id="shape4" transform="translate(482.1, 200.273401367629)" fill="#bbbbbb" stroke-opacity="0" stroke="#000000" stroke-width="0" stroke-linecap="square" stroke-linejoin="bevel" d="M4.8 0.326599L4.8 2.4266L0.1 2.4266C0.4 3.4266 0.5 4.4266 0.5 5.4266C0.5 6.5266 0.3 7.6266 0 8.6266L4.8 8.6266L4.8 10.9266C4.8 11.1266 5 11.3266 5.2 11.3266L6.3 11.3266C6.5 11.3266 6.7 11.1266 6.7 10.9266L6.7 0.426599C6.7 0.226599 6.5 0.0265986 6.3 0.0265986L5.2 0.0265986C4.9 -0.0734014 4.8 0.126599 4.8 0.326599Z" sodipodi:nodetypes="cccccccccccccc"/>
  <path id="shape5" transform="translate(463.2, 192.2)" fill="#bbbbbb" stroke-opacity="0" stroke="#000000" stroke-width="0" stroke-linecap="square" stroke-linejoin="bevel" d="M8.8 2.8C12.5 2.8 15.8 4.8 17.7 7.7C17.6 7.2 17.5 6.7 17.4 6.2C17.4 5.7 17 5.4 16.5 5.2L16.5 0.4C16.5 0.2 16.3 0 16.1 0L1.5 0C1.5 0 1.3 0 1.2 0.1C1.1 0.2 1.1 0.3 1.1 0.3L1.1 5.1C0.6 5.3 0.4 5.5 0.3 6C0.2 6.5 0.1 7 0 7.5C1.8 4.7 5.1 2.8 8.8 2.8Z" sodipodi:nodetypes="ccccccccccccc"/>
  <path id="shape6" transform="translate(462.4, 196)" fill="#bbbbbb" stroke-opacity="0" stroke="#000000" stroke-width="0" stroke-linecap="square" stroke-linejoin="bevel" d="M19.2 9.7C19.2 4.3 14.9 0 9.6 0C4.3 0 0 4.3 0 9.7C0 15.1 4.3 19.4 9.6 19.4C14.9 19.4 19.2 15.1 19.2 9.7ZM2.4 9.7C2.4 5.7 5.6 2.5 9.6 2.5C13.6 2.5 16.8 5.7 16.8 9.7C16.8 13.7 13.6 16.9 9.6 16.9C5.6 16.9 2.4 13.7 2.4 9.7Z" sodipodi:nodetypes="cccccccccc"/>
 </g><g id="pump-01-rpm" transform="matrix(0.72 0 0 0.72 -252 0)" fill="none">
  <g id="label_pump-01-rpm" fill="none">
   <path id="frame_bg_5" transform="translate(486.7, 220.5)" fill="#ffffff" stroke-opacity="0" stroke="#000000" stroke-width="0" stroke-linecap="square" stroke-linejoin="bevel" d="M45.9 26C45.9 27.4 44.8 28.5 43.4 28.5L0 28.5C0.8 28 1.3 27.1 1.3 26L1.3 2.5C1.3 1.5 0.8 0.6 0 0L43.4 0C44.8 0 45.9 1.1 45.9 2.5Z" sodipodi:nodetypes="ccccccccc"/>
   <path id="frame_5" transform="translate(455.7, 219.4)" fill="#c8c8c8" stroke-opacity="0" stroke="#000000" stroke-width="0" stroke-linecap="square" stroke-linejoin="bevel" d="M74.5 0L3.5 0C1.6 0 0 1.6 0 3.5L0 27C0 28.9 1.6 30.5 3.5 30.5L74.5 30.5C76.4 30.5 78 28.9 78 27L78 3.6C78 1.6 76.4 0 74.5 0ZM76.9 27.1C76.9 28.5 75.8 29.6 74.4 29.6L31 29.6C31.8 29.1 32.3 28.2 32.3 27.1L32.3 3.6C32.3 2.6 31.8 1.7 31 1.1L74.4 1.1C75.8 1.1 76.9 2.2 76.9 3.6Z" sodipodi:nodetypes="cccccccccccccccccc"/>
   <g id="symb_rpm" fill="none">
    <path id="shape7" transform="translate(458, 225.3)" fill="#646464" stroke-opacity="0" stroke="#000000" stroke-width="0" stroke-linecap="square" stroke-linejoin="bevel" d="M13.5 0C6.1 0 0 6.1 0 13.5L0 14L3.5 14L3.5 13L1 13C1.1 9.9 2.4 7.1 4.3 5L6.1 6.8L6.8 6.1L5 4.3C7.1 2.3 9.9 1.1 13 1L13 3.5L14 3.5L14 1C17.1 1.1 19.9 2.3 22 4.3L20.3 6L21 6.7L22.7 5C24.7 7.1 25.9 9.9 26 13L23.5 13L23.5 14L27 14L27 13.5C27 6.1 21 0 13.5 0Z" sodipodi:nodetypes="cccccccccccccccccccccccc"/>
    <path id="shape8" transform="translate(468.461959183673, 233.2)" fill="#646464" stroke-opacity="0" stroke="#000000" stroke-width="0" stroke-linecap="square" stroke-linejoin="bevel" d="M1.03804 7.2C2.73804 8.9 4.03804 8 4.03804 8L8.23804 0L0.238041 4.2C0.238041 4.2 -0.661959 5.5 1.03804 7.2Z" sodipodi:nodetypes="ccccc"/>
   </g>
  </g><text id="txt_pump-01-rpm" krita:useRichText="false" text-rendering="auto" krita:textVersion="3" transform="translate(493.5977, 240.2959)" fill="#000000" stroke-opacity="0" stroke="#000000" stroke-width="0" stroke-linecap="square" stroke-linejoin="bevel" style="text-align: start;text-align-last: auto;font-size: 14;">%</text>
 </g><path id="buffer-tank" transform="matrix(0.72 0 0 0.72 160.776 19.44)" fill="#787878" stroke-opacity="0" stroke="#000000" stroke-width="0" stroke-linecap="square" stroke-linejoin="bevel" d="M167.1 26.9C167.1 9.4 125.4 0 86.2 0L83 0C43.8 0 2.1 9.4 2.1 26.9L2.1 188.2C2.1 192.5 4.6 196.4 9.7 200L0 215.1L29 215.1L32.5 209.5C46.7 213.2 64.6 215.2 83 215.2L86.2 215.2C104.7 215.2 122.5 213.2 136.7 209.5L140.2 215.1L169.2 215.1L159.5 200C164.5 196.4 167.1 192.5 167.1 188.2ZM162 188.2C162 191.9 158 195.1 154.7 197.1L152.5 198.5L159.9 210.1L143.1 210.1L139.1 203.7L137.3 204.2C123.2 208 105.1 210.2 86.3 210.2L83.1 210.2C64.3 210.2 46.1 208.1 32.1 204.2L30.3 203.7L26.3 210.1L9.5 210.1L16.9 198.5L14.7 197.1C11.4 195.1 7.4 191.9 7.4 188.2L7.4 26.9C7.4 16.6 38.5 5.1 83.2 5.1L86.4 5.1C131.1 5.1 162.2 16.6 162.2 26.9L162.2 188.2Z" sodipodi:nodetypes="ccccccccccccccccccccccccccccccccccccccc"/><path id="obj_loading-bar-01" transform="matrix(0.72 0 0 0.72 168.552 25.632)" fill="#c86464" stroke-opacity="0" stroke="#000000" stroke-width="0" stroke-linecap="square" stroke-linejoin="bevel" d="M147.6 46.8L147.6 18.3C147.6 16.1 142.6 11.2 129 6.9C114.8 2.5 95.7 0 75.4 0L72.2 0C51.9 0 32.8 2.4 18.6 6.9C4.9 11.2 0 16 0 18.3L0 46.8Z" sodipodi:nodetypes="ccccccccc"/><rect id="obj_loading-bar-02" transform="matrix(0.72 0 0 0.72 168.48 61.92)" fill="#c86464" stroke-opacity="0" stroke="#000000" stroke-width="0" stroke-linecap="square" stroke-linejoin="bevel" width="147.7" height="46.8"/><rect id="obj_loading-bar-03" transform="matrix(0.72 0 0 0.72 168.48 98.136)" fill="#c86464" stroke-opacity="0" stroke="#000000" stroke-width="0" stroke-linecap="square" stroke-linejoin="bevel" width="147.7" height="46.8"/><path id="obj_loading-bar-04" transform="matrix(0.72 0 0 0.72 168.48 134.424)" fill="#6e8ca0" stroke-opacity="0" stroke="#000000" stroke-width="0" stroke-linecap="square" stroke-linejoin="bevel" d="M0 0L0 28.5C0 30.7 5 35.6 18.6 39.9C32.8 44.3 51.9 46.8 72.2 46.8L75.4 46.8C95.7 46.8 114.8 44.4 129 39.9C142.7 35.6 147.6 30.8 147.6 28.5L147.6 0Z" sodipodi:nodetypes="ccccccccc"/><g id="buffer-load" transform="matrix(0.72 0 0 0.72 -252 0)" fill="none">
  <g id="label_buffer-load" fill="none">
   <path id="frame_bg" transform="translate(647.6, 119.9)" fill="#ffffff" stroke-opacity="0" stroke="#000000" stroke-width="0" stroke-linecap="square" stroke-linejoin="bevel" d="M45.9 26C45.9 27.4 44.8 28.5 43.4 28.5L0 28.5C0.8 28 1.3 27.1 1.3 26L1.3 2.5C1.3 1.5 0.8 0.6 0 0L43.4 0C44.8 0 45.9 1.1 45.9 2.5Z" sodipodi:nodetypes="ccccccccc"/>
   <path id="frame_6" transform="translate(616.5, 118.9)" fill="#c8c8c8" stroke-opacity="0" stroke="#000000" stroke-width="0" stroke-linecap="square" stroke-linejoin="bevel" d="M74.5 0L3.5 0C1.6 0 0 1.6 0 3.5L0 27C0 28.9 1.6 30.5 3.5 30.5L74.5 30.5C76.4 30.5 78 28.9 78 27L78 3.5C78.1 1.5 76.5 0 74.5 0ZM77 27C77 28.4 75.9 29.5 74.5 29.5L31.1 29.5C31.9 29 32.4 28.1 32.4 27L32.4 3.5C32.4 2.5 31.9 1.6 31.1 1L74.5 1C75.9 1 77 2.1 77 3.5Z" sodipodi:nodetypes="cccccccccccccccccc"/>
   <g id="symb_buffer-01" fill="none">
    <path id="shape9" transform="translate(633.8, 122.9)" fill="#646464" stroke-opacity="0" stroke="#000000" stroke-width="0" stroke-linecap="square" stroke-linejoin="bevel" d="M5.2 0C2.3 0 0 2.4 0 5.2C0 8.1 2.4 10.5 5.2 10.5C8.1 10.5 10.5 8.1 10.5 5.2C10.5 2.4 8.1 0 5.2 0ZM6.3 8.6L5 8.6L5 3.8C4.5 4.2 4 4.6 3.3 4.8L3.3 3.6C3.6 3.5 4 3.3 4.4 3C4.8 2.7 5.1 2.3 5.2 1.9L6.2 1.9L6.2 8.6Z" sodipodi:nodetypes="ccccccccccccccc"/>
    <path id="shape10" transform="translate(622.2, 122.8)" fill="#646464" stroke-opacity="0" stroke="#000000" stroke-width="0" stroke-linecap="square" stroke-linejoin="bevel" d="M17.8 11.9C17.5 11.9 17.1 12 16.8 12C15.7 12 14.7 11.7 13.7 11.3C13.6 11.3 13.6 11.3 13.5 11.3L4.1 10.3C2.4 10.1 2.6 7.6 4.3 7.8L10.7 8.5C10.4 7.9 10.2 7.2 10 6.5L4 5.8C2.3 5.6 2.5 3.1 4.2 3.3L10 3.9C10.3 2.4 11.1 1.2 12.2 0.2C11.2 0.1 10.1 0 9 0L8.6 0C3.8 0 0 1.2 0 2.7L0 20.4C0 20.8 0.3 21.2 0.9 21.6L0 23.1L2.5 23.1L2.9 22.4C4.4 22.8 6.4 23.1 8.6 23.1L9 23.1C11.2 23.1 13.2 22.8 14.7 22.4L15.1 23.1L17.6 23.1L16.7 21.6C17.3 21.2 17.6 20.8 17.6 20.4L17.6 19.3L20.6 19.3L20.6 17.4L17.6 17.4L17.6 11.9ZM13.6 20L4.2 19C2.5 18.8 2.7 16.3 4.4 16.5L13.8 17.5C15.6 17.7 15.3 20.2 13.6 20ZM13.6 15.6L4.2 14.6C2.5 14.4 2.7 11.9 4.4 12.1L13.8 13.1C15.6 13.3 15.3 15.8 13.6 15.6Z" sodipodi:nodetypes="ccccccccccccccccccccccccccccccccccccccccccc"/>
   </g>
  </g><text id="txt_buffer-load" krita:useRichText="false" text-rendering="auto" krita:textVersion="3" transform="translate(653.5208, 139.5522)" fill="#000000" stroke-opacity="0" stroke="#000000" stroke-width="0" stroke-linecap="square" stroke-linejoin="bevel" style="text-align: start;text-align-last: auto;font-size: 14;">%</text>
 </g><g id="buffer-lower-sensor" transform="matrix(0.72 0 0 0.72 -252 0)" fill="none">
  <g id="label_buffer-lower-sensor" fill="none">
   <path id="frame_bg_1" transform="translate(770.5, 195.6)" fill="#ffffff" stroke-opacity="0" stroke="#000000" stroke-width="0" stroke-linecap="square" stroke-linejoin="bevel" d="M43.9 26C43.9 27.4 42.8 28.5 41.4 28.5L0 28.5C0.8 28 1.4 27 1.4 26L1.4 2.5C1.4 1.4 0.8 0.5 0 0L41.4 0C42.8 0 43.9 1.1 43.9 2.5Z" sodipodi:nodetypes="ccccccccc"/>
   <path id="frame" transform="translate(755.3, 194.6)" fill="#c8c8c8" stroke-opacity="0" stroke="#000000" stroke-width="0" stroke-linecap="square" stroke-linejoin="bevel" d="M56.5 0L3.5 0C1.6 0 0 1.6 0 3.5L0 27C0 28.9 1.6 30.5 3.5 30.5L56.5 30.5C58.4 30.5 60 28.9 60 27L60 3.5C60 1.6 58.5 0 56.5 0ZM59.1 27C59.1 28.4 58 29.5 56.6 29.5L15.2 29.5C16 29 16.6 28 16.6 27L16.6 3.5C16.6 2.4 16 1.5 15.2 1L56.6 1C58 1 59.1 2.1 59.1 3.5Z" sodipodi:nodetypes="cccccccccccccccccc"/>
   <g id="symb_thermometer" fill="none">
    <rect id="shape11" transform="translate(759.2, 205.8)" fill="#646464" stroke-opacity="0" stroke="#000000" stroke-width="0" stroke-linecap="square" stroke-linejoin="bevel" width="2.9" height="2"/>
    <rect id="shape12" transform="translate(759.2, 202.2)" fill="#646464" stroke-opacity="0" stroke="#000000" stroke-width="0" stroke-linecap="square" stroke-linejoin="bevel" width="2.9" height="2"/>
    <path id="shape13" transform="translate(760.3, 200.35)" fill="#646464" stroke-opacity="0" stroke="#000000" stroke-width="0" stroke-linecap="square" stroke-linejoin="bevel" d="M5.8 11.85L5.8 1.65C5.8 -0.55 2.5 -0.55 2.5 1.65L2.5 11.95C1.1 12.55 0 14.05 0 15.75C0 18.05 1.8 19.85 4.1 19.85C6.4 19.85 8.2 18.05 8.2 15.75C8.3 13.95 7.3 12.55 5.8 11.85Z" sodipodi:nodetypes="cccccccc"/>
    <rect id="shape14" transform="translate(759.2, 209.4)" fill="#646464" stroke-opacity="0" stroke="#000000" stroke-width="0" stroke-linecap="square" stroke-linejoin="bevel" width="2.9" height="2"/>
   </g>
  </g><text id="txt_buffer-lower-sensor" krita:useRichText="false" text-rendering="auto" krita:textVersion="3" transform="translate(777.2209, 215.4353)" fill="#000000" stroke-opacity="0" stroke="#000000" stroke-width="0" stroke-linecap="square" stroke-linejoin="bevel" style="text-align: start;text-align-last: auto;font-size: 14;">°C</text>
 </g><g id="buffer-upper-sensor" transform="matrix(0.72 0 0 0.72 -252 0)" fill="none">
  <g id="label_buffer-upper-sensor" fill="none">
   <path id="frame_bg_4" transform="translate(770.5, 43.7)" fill="#ffffff" stroke-opacity="0" stroke="#000000" stroke-width="0" stroke-linecap="square" stroke-linejoin="bevel" d="M43.9 26C43.9 27.4 42.8 28.5 41.4 28.5L0 28.5C0.8 28 1.4 27 1.4 26L1.4 2.5C1.4 1.4 0.8 0.5 0 0L41.4 0C42.8 0 43.9 1.1 43.9 2.5Z" sodipodi:nodetypes="ccccccccc"/>
   <path id="frame_3" transform="translate(755.3, 42.7)" fill="#c8c8c8" stroke-opacity="0" stroke="#000000" stroke-width="0" stroke-linecap="square" stroke-linejoin="bevel" d="M56.5 0L3.5 0C1.6 0 0 1.6 0 3.5L0 27C0 28.9 1.6 30.5 3.5 30.5L56.5 30.5C58.4 30.5 60 28.9 60 27L60 3.5C60 1.6 58.5 0 56.5 0ZM59.1 27C59.1 28.4 58 29.5 56.6 29.5L15.2 29.5C16 29 16.6 28 16.6 27L16.6 3.5C16.6 2.4 16 1.5 15.2 1L56.6 1C58 1 59.1 2.1 59.1 3.5Z" sodipodi:nodetypes="cccccccccccccccccc"/>
   <g id="symb_thermometer_3" fill="none">
    <rect id="shape15" transform="translate(759.2, 53.9)" fill="#646464" stroke-opacity="0" stroke="#000000" stroke-width="0" stroke-linecap="square" stroke-linejoin="bevel" width="2.9" height="2"/>
    <rect id="shape16" transform="translate(759.2, 50.3)" fill="#646464" stroke-opacity="0" stroke="#000000" stroke-width="0" stroke-linecap="square" stroke-linejoin="bevel" width="2.9" height="2"/>
    <path id="shape17" transform="translate(760.3, 48.45)" fill="#646464" stroke-opacity="0" stroke="#000000" stroke-width="0" stroke-linecap="square" stroke-linejoin="bevel" d="M5.8 11.85L5.8 1.65C5.8 -0.55 2.5 -0.55 2.5 1.65L2.5 11.95C1.1 12.55 0 14.05 0 15.75C0 18.05 1.8 19.85 4.1 19.85C6.4 19.85 8.2 18.05 8.2 15.75C8.3 13.95 7.3 12.55 5.8 11.85Z" sodipodi:nodetypes="cccccccc"/>
    <rect id="shape18" transform="translate(759.2, 57.5)" fill="#646464" stroke-opacity="0" stroke="#000000" stroke-width="0" stroke-linecap="square" stroke-linejoin="bevel" width="2.9" height="2"/>
   </g>
  </g><text id="txt_buffer-upper-sensor" krita:useRichText="false" text-rendering="auto" krita:textVersion="3" transform="translate(773.2424, 63.5206)" fill="#000000" stroke-opacity="0" stroke="#000000" stroke-width="0" stroke-linecap="square" stroke-linejoin="bevel" style="text-align: start;text-align-last: auto;font-size: 14;">°C</text>
 </g><g id="buffer-upper-sensor1" transform="matrix(0.72 0 0 0.72 -251.84761677571 54.0411526898318)" fill="none">
  <g id="label_buffer-upper-sensor1" fill="none">
   <path id="frame_bg_41" transform="translate(770.5, 43.7)" fill="#ffffff" stroke-opacity="0" stroke="#000000" stroke-width="0" stroke-linecap="square" stroke-linejoin="bevel" d="M43.9 26C43.9 27.4 42.8 28.5 41.4 28.5L0 28.5C0.8 28 1.4 27 1.4 26L1.4 2.5C1.4 1.4 0.8 0.5 0 0L41.4 0C42.8 0 43.9 1.1 43.9 2.5Z" sodipodi:nodetypes="ccccccccc"/>
   <path id="frame_31" transform="translate(755.3, 42.7)" fill="#c8c8c8" stroke-opacity="0" stroke="#000000" stroke-width="0" stroke-linecap="square" stroke-linejoin="bevel" d="M56.5 0L3.5 0C1.6 0 0 1.6 0 3.5L0 27C0 28.9 1.6 30.5 3.5 30.5L56.5 30.5C58.4 30.5 60 28.9 60 27L60 3.5C60 1.6 58.5 0 56.5 0ZM59.1 27C59.1 28.4 58 29.5 56.6 29.5L15.2 29.5C16 29 16.6 28 16.6 27L16.6 3.5C16.6 2.4 16 1.5 15.2 1L56.6 1C58 1 59.1 2.1 59.1 3.5Z" sodipodi:nodetypes="cccccccccccccccccc"/>
   <g id="symb_thermometer_31" fill="none">
    <rect id="shape01" transform="translate(759.2, 53.9)" fill="#646464" stroke-opacity="0" stroke="#000000" stroke-width="0" stroke-linecap="square" stroke-linejoin="bevel" width="2.9" height="2"/>
    <rect id="shape19" transform="translate(759.2, 50.3)" fill="#646464" stroke-opacity="0" stroke="#000000" stroke-width="0" stroke-linecap="square" stroke-linejoin="bevel" width="2.9" height="2"/>
    <path id="shape21" transform="translate(760.3, 48.45)" fill="#646464" stroke-opacity="0" stroke="#000000" stroke-width="0" stroke-linecap="square" stroke-linejoin="bevel" d="M5.8 11.85L5.8 1.65C5.8 -0.55 2.5 -0.55 2.5 1.65L2.5 11.95C1.1 12.55 0 14.05 0 15.75C0 18.05 1.8 19.85 4.1 19.85C6.4 19.85 8.2 18.05 8.2 15.75C8.3 13.95 7.3 12.55 5.8 11.85Z" sodipodi:nodetypes="cccccccc"/>
    <rect id="shape31" transform="translate(759.2, 57.5)" fill="#646464" stroke-opacity="0" stroke="#000000" stroke-width="0" stroke-linecap="square" stroke-linejoin="bevel" width="2.9" height="2"/>
   </g>
  </g><text id="txt_buffer-upper-sensor1" krita:useRichText="false" text-rendering="auto" krita:textVersion="3" transform="translate(773.2424, 63.5206)" fill="#000000" stroke-opacity="0" stroke="#000000" stroke-width="0" stroke-linecap="square" stroke-linejoin="bevel" style="text-align: start;text-align-last: auto;font-size: 14;">°C</text>
 </g>
</svg>
